<svg xmlns="http://www.w3.org/2000/svg" viewBox="0 0 24 24">
  <path d="M18.125 14.563c-.183-.487-.275-1-.275-1.538 0-.487.091-.962.274-1.425.183-.462.43-.875.741-1.237.31-.363.638-.663.982-.9a7.47 7.47 0 0 1 1.028-.575c-.31-.4-.71-.738-1.2-1.013-.491-.275-1.069-.412-1.734-.412-.462 0-.928.087-1.397.262-.47.175-.907.4-1.313.675-.406.275-.766.588-1.078.938-.313.35-.563.688-.75 1.012-.213-.325-.475-.663-.788-1.013-.312-.35-.672-.662-1.078-.937-.406-.275-.85-.5-1.331-.675-.482-.175-.994-.263-1.538-.263-.665 0-1.244.138-1.734.413-.491.275-.891.612-1.2 1.012.35.175.685.363 1.003.563.319.2.622.462.91.787.287.325.522.713.703 1.163.182.45.274.975.274 1.575s-.092 1.125-.274 1.612c-.181.488-.428.913-.741 1.275-.312.363-.647.663-1.003.9-.356.238-.719.425-1.087.563.309.4.709.738 1.2 1.013.49.275 1.069.412 1.734.412.544 0 1.056-.088 1.538-.263.481-.175.925-.4 1.331-.675.406-.275.766-.587 1.078-.937.313-.35.575-.688.788-1.013.187.325.437.663.75 1.013.312.35.672.662 1.078.937.406.275.844.5 1.313.675.469.175.935.263 1.397.263.665 0 1.243-.138 1.734-.413.491-.275.891-.612 1.2-1.012-.35-.175-.691-.363-1.022-.563-.331-.2-.641-.462-.928-.787-.288-.325-.522-.713-.703-1.163z"/>
</svg> 