<svg xmlns="http://www.w3.org/2000/svg" viewBox="0 0 24 24">
  <path fill="#003087" d="M20.7 5.3c-0.4-0.4-1-0.7-1.7-0.7h-7.9c-0.3 0-0.6 0.2-0.7 0.5L8.1 14c0 0.1 0 0.2 0 0.3 0 0.4 0.3 0.7 0.7 0.7h3.6l-0.3 1.9c0 0.1 0 0.2 0 0.3 0 0.4 0.3 0.7 0.7 0.7h3.1c0.3 0 0.6-0.2 0.7-0.5l1.3-5.6 2.1-8.9c0.1-0.3-0.1-0.6-0.4-0.8z"/>
  <path fill="#009cde" d="M9.1 5.8c-0.4-0.4-1-0.7-1.7-0.7H1.7C1.4 5.1 1.1 5.3 1 5.6L3.2 16c0 0.1 0 0.2 0 0.3 0 0.4 0.3 0.7 0.7 0.7h3.6l0.9-3.8 0.9-3.8c0.1-0.3-0.1-0.6-0.4-0.8z"/>
</svg> 